<svg id="svg" version="1.1" xmlns="http://www.w3.org/2000/svg" xmlns:xlink="http://www.w3.org/1999/xlink" width="400" height="400" viewBox="0, 0, 400,400"><g id="svgg"><path id="path0" d="M212.084 134.808 C 188.920 157.904,169.786 176.800,169.564 176.800 C 169.342 176.800,167.501 175.405,165.472 173.700 C 163.444 171.995,160.904 169.880,159.829 169.000 C 158.753 168.120,156.147 165.956,154.037 164.191 C 151.926 162.426,148.220 159.370,145.800 157.401 C 143.380 155.431,141.310 153.718,141.200 153.594 C 141.090 153.469,139.020 151.755,136.600 149.784 C 134.180 147.813,131.750 145.814,131.200 145.342 C 130.650 144.870,127.950 142.626,125.200 140.356 C 122.450 138.086,120.110 136.122,120.000 135.993 C 119.890 135.864,119.167 135.283,118.394 134.703 L 116.988 133.649 113.994 135.472 C 112.347 136.476,110.370 137.656,109.600 138.095 C 108.830 138.534,107.749 139.188,107.198 139.547 C 106.647 139.906,105.837 140.415,105.398 140.678 C 99.122 144.438,94.922 147.078,94.420 147.580 C 93.523 148.477,93.671 252.800,94.570 252.800 C 94.880 252.800,95.193 252.935,95.267 253.100 C 95.340 253.265,97.650 254.531,100.400 255.914 C 103.150 257.297,107.273 259.412,109.563 260.614 C 113.971 262.929,114.547 263.096,115.382 262.300 C 115.671 262.025,117.953 260.223,120.454 258.296 C 122.954 256.368,127.620 252.768,130.822 250.296 C 134.024 247.823,137.244 245.350,137.978 244.800 C 138.712 244.250,141.150 242.360,143.394 240.600 C 145.639 238.840,148.073 236.950,148.803 236.400 C 149.533 235.850,151.858 234.050,153.968 232.400 C 156.079 230.750,158.880 228.590,160.194 227.600 C 163.260 225.289,163.839 224.833,165.410 223.500 C 166.123 222.895,166.907 222.400,167.154 222.400 C 167.544 222.400,197.341 252.220,214.117 269.400 C 232.151 287.868,251.575 307.264,251.866 307.092 C 252.050 306.984,253.100 306.497,254.200 306.010 C 255.300 305.523,257.190 304.672,258.400 304.119 C 259.610 303.567,261.320 302.792,262.200 302.397 C 263.080 302.002,265.240 301.007,267.000 300.186 C 268.760 299.364,270.920 298.379,271.800 297.995 C 272.680 297.611,274.480 296.806,275.800 296.206 C 277.120 295.605,278.830 294.840,279.600 294.507 C 280.370 294.173,282.350 293.268,284.000 292.496 C 285.650 291.724,287.748 290.770,288.662 290.377 C 289.575 289.983,291.465 289.127,292.862 288.475 C 294.258 287.822,296.547 286.773,297.950 286.144 C 302.584 284.065,306.145 282.204,306.072 281.900 C 306.032 281.735,306.000 244.064,306.000 198.187 C 306.000 119.101,305.964 114.763,305.300 114.545 C 304.915 114.418,304.015 114.064,303.300 113.757 C 302.585 113.451,301.415 112.951,300.700 112.647 C 299.985 112.342,298.547 111.712,297.504 111.247 C 296.462 110.781,295.521 110.400,295.414 110.400 C 295.307 110.400,294.001 109.844,292.510 109.165 C 289.914 107.982,289.131 107.637,286.000 106.295 C 285.230 105.965,283.925 105.404,283.100 105.047 C 279.942 103.684,278.830 103.210,273.200 100.820 C 270.010 99.466,266.860 98.119,266.200 97.827 C 265.070 97.326,262.797 96.343,261.000 95.578 C 260.560 95.391,258.960 94.689,257.445 94.019 C 255.929 93.348,254.579 92.804,254.445 92.808 C 254.310 92.813,235.248 111.713,212.084 134.808 M254.600 201.005 C 254.600 246.380,254.596 246.599,253.800 246.460 C 253.360 246.383,252.910 246.202,252.800 246.057 C 252.639 245.845,244.849 239.306,242.400 237.327 C 241.056 236.241,233.768 230.191,233.345 229.810 C 233.094 229.584,232.553 229.130,232.143 228.800 C 231.057 227.928,222.741 221.123,221.800 220.337 C 221.360 219.969,219.650 218.553,218.000 217.190 C 216.350 215.826,214.190 214.036,213.200 213.210 C 212.210 212.385,208.205 209.052,204.300 205.803 C 196.647 199.435,196.553 199.307,198.500 197.945 C 199.215 197.445,201.172 195.947,202.849 194.618 C 204.526 193.288,207.557 190.940,209.585 189.400 C 211.614 187.860,213.602 186.330,214.003 186.000 C 214.404 185.670,215.063 185.128,215.466 184.795 C 215.870 184.462,218.090 182.753,220.400 180.997 C 222.710 179.240,224.805 177.623,225.055 177.402 C 225.793 176.751,226.839 175.940,230.213 173.406 C 231.966 172.089,233.490 170.910,233.600 170.786 C 233.710 170.663,234.430 170.125,235.200 169.592 C 235.970 169.058,236.955 168.296,237.389 167.898 C 237.824 167.500,239.534 166.147,241.189 164.893 C 242.845 163.638,244.290 162.510,244.400 162.386 C 244.510 162.263,245.230 161.726,246.000 161.194 C 246.770 160.662,247.596 160.040,247.837 159.813 C 248.077 159.586,248.878 158.950,249.618 158.400 C 250.358 157.850,251.511 156.908,252.181 156.306 C 254.773 153.978,254.600 150.787,254.600 201.005 M118.071 172.146 C 118.362 172.446,124.675 178.829,132.100 186.329 C 139.525 193.829,145.600 200.197,145.600 200.481 C 145.600 201.146,117.967 228.800,117.302 228.800 C 116.758 228.800,116.525 172.408,117.067 171.867 C 117.426 171.508,117.464 171.518,118.071 172.146 " stroke="none" fill="#fafbfb" fill-rule="evenodd"></path><path id="path1" d="M184.400 13.232 C 173.157 14.184,161.585 16.024,154.400 18.001 C 152.750 18.455,150.140 19.173,148.600 19.597 C 136.485 22.929,118.375 30.604,108.000 36.803 C 106.790 37.526,104.810 38.665,103.600 39.333 C 100.698 40.937,95.125 44.510,92.500 46.449 C 91.345 47.302,89.367 48.765,88.105 49.700 C 74.527 59.757,59.757 74.527,49.700 88.105 C 48.765 89.367,47.301 91.345,46.446 92.500 C 41.426 99.284,32.591 114.844,28.940 123.332 C 20.156 143.756,16.218 157.820,14.024 176.600 C 9.493 215.401,16.153 252.917,33.431 285.914 C 39.754 297.991,52.088 316.627,55.989 320.000 C 56.116 320.110,57.422 321.590,58.890 323.290 C 63.295 328.388,66.893 332.000,67.567 332.000 C 67.916 332.000,91.511 308.690,120.000 280.200 C 148.489 251.710,171.905 228.400,172.035 228.400 C 172.165 228.400,174.415 230.573,177.036 233.229 C 193.215 249.626,202.871 259.263,202.996 259.137 C 203.075 259.058,195.112 250.912,185.299 241.035 C 168.095 223.719,167.425 223.096,166.561 223.638 C 165.485 224.314,159.613 228.782,158.881 229.483 C 158.596 229.756,156.619 231.289,154.487 232.890 C 150.184 236.121,149.354 236.770,148.584 237.500 C 148.294 237.775,147.879 238.000,147.662 238.000 C 147.445 238.000,147.207 238.142,147.133 238.315 C 147.060 238.488,146.190 239.252,145.200 240.013 C 144.210 240.775,142.841 241.848,142.157 242.399 C 139.679 244.395,139.378 244.627,138.000 245.600 C 137.230 246.144,136.240 246.887,135.800 247.252 C 134.239 248.545,130.564 251.425,128.208 253.200 C 126.894 254.190,125.544 255.217,125.209 255.481 C 122.873 257.328,119.512 259.925,118.618 260.574 C 118.032 260.999,117.068 261.766,116.476 262.276 C 114.734 263.780,114.164 263.765,110.882 262.133 C 109.187 261.290,107.710 260.510,107.600 260.400 C 107.490 260.290,105.244 259.120,102.609 257.800 C 99.974 256.480,96.779 254.806,95.509 254.081 L 93.200 252.762 93.200 200.000 L 93.200 147.238 95.500 145.873 C 96.765 145.122,100.590 142.809,104.000 140.732 C 107.410 138.656,110.634 136.697,111.164 136.379 C 111.694 136.060,113.039 135.215,114.154 134.500 C 116.686 132.877,117.444 132.877,119.200 134.505 C 119.970 135.218,121.230 136.276,122.000 136.856 C 122.770 137.435,123.785 138.245,124.255 138.655 C 124.725 139.065,125.776 139.927,126.590 140.572 C 127.404 141.217,128.567 142.207,129.176 142.772 C 129.784 143.337,130.877 144.250,131.604 144.800 C 132.332 145.350,133.123 145.984,133.363 146.208 C 133.604 146.433,134.700 147.333,135.799 148.208 C 136.899 149.084,138.001 149.989,138.249 150.221 C 138.496 150.452,139.458 151.262,140.385 152.021 C 141.313 152.779,142.461 153.733,142.936 154.140 C 143.411 154.546,144.497 155.446,145.350 156.140 C 149.534 159.543,150.341 160.206,152.166 161.744 C 153.248 162.655,154.328 163.580,154.566 163.800 C 154.805 164.020,155.630 164.677,156.400 165.259 C 157.170 165.842,158.160 166.652,158.600 167.059 C 159.040 167.467,160.390 168.608,161.600 169.595 C 162.810 170.581,163.890 171.483,164.000 171.597 C 164.110 171.711,164.830 172.277,165.600 172.854 C 166.370 173.431,167.548 174.432,168.219 175.078 L 169.437 176.252 211.610 134.326 C 254.662 91.526,254.390 91.779,256.305 92.753 C 256.687 92.948,257.450 93.285,258.000 93.503 C 258.550 93.720,259.900 94.304,261.000 94.800 C 262.100 95.296,263.405 95.859,263.900 96.051 C 264.395 96.243,265.205 96.575,265.700 96.788 C 267.191 97.431,274.101 100.422,275.600 101.073 C 276.370 101.408,277.360 101.820,277.800 101.990 C 278.240 102.160,279.500 102.704,280.600 103.200 C 281.700 103.696,282.960 104.241,283.400 104.411 C 283.840 104.581,285.053 105.098,286.096 105.560 C 287.138 106.022,288.077 106.400,288.182 106.400 C 288.287 106.400,290.032 107.214,292.061 108.209 C 294.089 109.203,295.912 109.963,296.111 109.896 C 296.310 109.830,295.536 109.352,294.391 108.835 L 292.309 107.894 312.155 88.045 C 323.070 77.129,332.000 67.912,332.000 67.565 C 332.000 66.893,328.383 63.291,323.290 58.890 C 321.590 57.422,320.110 56.116,320.000 55.989 C 319.559 55.479,311.991 49.643,308.800 47.352 C 287.343 31.947,259.101 19.879,234.600 15.646 C 219.533 13.042,198.547 12.033,184.400 13.232 M306.352 114.542 C 306.683 114.941,306.775 137.264,306.701 198.842 L 306.600 282.600 304.200 283.889 C 302.880 284.598,301.994 285.183,302.232 285.189 C 302.916 285.207,306.490 283.301,306.856 282.723 C 307.232 282.130,307.332 115.610,306.957 114.633 C 306.824 114.285,306.532 114.000,306.308 114.000 C 306.055 114.000,306.071 114.204,306.352 114.542 M250.514 158.363 C 247.232 160.921,245.917 162.190,248.000 160.787 C 249.821 159.561,252.919 157.111,253.294 156.600 C 253.456 156.380,253.591 176.225,253.594 200.700 C 253.598 230.104,253.464 245.200,253.200 245.200 C 252.980 245.200,252.800 245.063,252.800 244.896 C 252.800 244.729,252.395 244.347,251.900 244.046 C 251.186 243.613,251.243 243.758,252.175 244.750 C 252.821 245.437,253.541 246.000,253.775 246.000 C 254.269 246.000,254.191 156.807,253.697 156.373 C 253.533 156.229,252.101 157.125,250.514 158.363 M245.154 162.534 C 243.383 163.999,242.692 164.540,240.000 166.570 C 236.715 169.046,236.542 169.200,237.045 169.200 C 237.267 169.200,237.798 168.883,238.225 168.496 C 238.651 168.108,240.620 166.547,242.600 165.026 C 244.580 163.504,246.275 162.201,246.367 162.130 C 246.458 162.058,246.458 161.925,246.367 161.834 C 246.275 161.743,245.729 162.058,245.154 162.534 M230.469 173.831 C 229.517 174.584,228.934 175.200,229.175 175.200 C 229.415 175.200,230.284 174.575,231.106 173.811 C 232.999 172.050,232.708 172.060,230.469 173.831 M117.600 200.400 C 117.600 215.360,117.690 227.600,117.799 227.600 C 117.909 227.600,124.091 221.516,131.538 214.079 L 145.078 200.559 131.585 186.879 C 124.165 179.356,117.982 173.200,117.847 173.200 C 117.711 173.200,117.600 185.440,117.600 200.400 M226.600 177.052 C 224.986 178.505,225.640 178.191,227.731 176.509 C 228.353 176.009,228.713 175.603,228.531 175.606 C 228.349 175.609,227.480 176.260,226.600 177.052 M221.800 180.632 C 219.153 182.738,217.391 184.328,218.800 183.341 C 220.328 182.270,224.800 178.709,224.800 178.563 C 224.800 178.265,224.618 178.390,221.800 180.632 M216.000 185.070 C 213.660 186.867,212.600 187.996,214.400 186.775 C 215.170 186.253,216.034 185.599,216.320 185.322 C 216.606 185.045,217.144 184.647,217.516 184.439 C 217.889 184.230,218.105 183.977,217.997 183.874 C 217.889 183.772,216.990 184.311,216.000 185.070 M208.600 191.022 C 206.400 192.851,204.390 194.360,204.133 194.374 C 203.877 194.388,203.607 194.542,203.533 194.715 C 203.460 194.888,202.596 195.653,201.613 196.415 C 200.631 197.177,199.395 198.184,198.867 198.654 L 197.906 199.509 199.839 201.335 C 200.903 202.339,201.853 203.081,201.951 202.983 C 202.049 202.884,201.650 202.392,201.065 201.889 C 200.479 201.386,200.000 200.787,200.000 200.557 C 200.000 200.114,209.253 190.956,211.571 189.105 C 212.326 188.502,212.866 187.939,212.771 187.853 C 212.677 187.766,210.800 189.192,208.600 191.022 M204.400 205.151 C 204.400 205.398,204.537 205.600,204.704 205.600 C 204.871 205.600,205.456 206.005,206.004 206.500 C 208.398 208.664,211.199 210.847,211.184 210.537 C 211.175 210.352,210.292 209.509,209.222 208.665 C 208.151 207.821,206.941 206.831,206.533 206.465 C 204.915 205.018,204.400 204.700,204.400 205.151 M213.764 212.875 C 214.624 213.604,216.424 215.131,217.763 216.268 C 219.101 217.406,220.282 218.251,220.387 218.146 C 220.491 218.042,220.376 217.831,220.130 217.678 C 219.655 217.382,216.149 214.480,215.429 213.787 C 215.193 213.560,214.370 212.963,213.600 212.462 C 212.236 211.574,212.240 211.584,213.764 212.875 M222.824 220.251 C 222.837 220.443,224.862 222.193,227.324 224.140 C 229.786 226.087,231.162 227.077,230.382 226.340 C 229.601 225.603,228.084 224.280,227.011 223.400 C 225.937 222.520,224.864 221.620,224.628 221.400 C 223.574 220.422,222.802 219.930,222.824 220.251 M232.800 228.555 C 232.800 228.640,234.645 230.189,236.900 231.996 C 240.792 235.117,240.320 234.411,236.233 231.000 C 235.179 230.120,234.078 229.175,233.787 228.900 C 233.268 228.411,232.800 228.247,232.800 228.555 M243.800 237.742 C 244.900 238.747,245.963 239.576,246.162 239.585 C 246.593 239.603,244.694 237.892,243.000 236.735 C 242.340 236.284,242.700 236.737,243.800 237.742 M248.600 241.700 C 249.700 242.699,250.687 243.433,250.794 243.331 C 250.990 243.143,249.995 242.280,247.800 240.731 C 247.140 240.266,247.500 240.702,248.600 241.700 M204.891 261.340 C 205.831 262.297,206.678 263.013,206.774 262.932 C 207.005 262.737,203.931 259.600,203.510 259.600 C 203.329 259.600,203.951 260.383,204.891 261.340 M208.000 264.324 C 208.000 264.748,209.545 266.197,209.749 265.964 C 209.828 265.874,209.467 265.389,208.946 264.886 C 208.426 264.383,208.000 264.130,208.000 264.324 M215.600 271.966 C 215.600 272.326,218.754 275.398,218.894 275.174 C 218.953 275.078,218.236 274.256,217.301 273.347 C 216.365 272.438,215.600 271.816,215.600 271.966 M222.600 279.118 C 223.920 280.539,226.352 283.073,228.004 284.750 C 229.656 286.428,235.481 292.345,240.948 297.900 C 246.416 303.455,251.196 308.000,251.570 308.000 C 252.363 308.000,256.439 306.052,255.712 306.021 C 255.444 306.009,254.583 306.360,253.800 306.800 C 253.017 307.240,252.066 307.602,251.688 307.605 C 251.310 307.607,244.070 300.618,235.600 292.073 C 227.130 283.527,221.280 277.698,222.600 279.118 M291.600 289.616 C 291.270 289.818,289.334 290.737,287.298 291.657 C 285.262 292.577,283.685 293.418,283.794 293.527 C 283.902 293.635,285.118 293.175,286.495 292.504 C 287.873 291.833,289.855 290.904,290.900 290.440 C 291.945 289.976,292.800 289.507,292.800 289.398 C 292.800 289.104,292.279 289.199,291.600 289.616 M276.053 296.653 C 275.313 296.976,274.801 297.334,274.916 297.450 C 275.137 297.671,277.600 296.515,277.600 296.190 C 277.600 295.963,277.713 295.929,276.053 296.653 M273.200 297.988 C 272.648 298.301,270.850 299.124,265.303 301.603 C 264.150 302.118,263.294 302.627,263.401 302.734 C 263.508 302.841,264.361 302.559,265.298 302.107 C 267.938 300.833,271.250 299.329,272.900 298.654 C 273.725 298.317,274.400 297.942,274.400 297.820 C 274.400 297.515,273.913 297.583,273.200 297.988 " stroke="none" fill="#238bd4" fill-rule="evenodd"></path><path id="path2" d="M240.703 105.410 C 233.500 112.554,227.741 118.400,227.905 118.400 C 228.070 118.400,234.053 112.550,241.200 105.400 C 248.347 98.250,254.106 92.404,253.998 92.410 C 253.889 92.415,247.906 98.265,240.703 105.410 M265.400 97.014 C 269.017 98.709,270.451 99.282,270.630 99.104 C 270.739 98.994,269.787 98.493,268.514 97.990 C 267.241 97.487,266.029 96.923,265.820 96.738 C 265.611 96.552,265.161 96.412,264.820 96.426 C 264.479 96.440,264.740 96.704,265.400 97.014 M271.200 99.389 C 271.200 99.706,274.100 100.833,274.328 100.605 C 274.441 100.492,274.435 100.400,274.316 100.400 C 274.196 100.400,273.446 100.128,272.649 99.795 C 271.852 99.462,271.200 99.279,271.200 99.389 M278.454 102.587 C 278.767 102.900,281.600 104.023,281.600 103.835 C 281.600 103.591,279.169 102.400,278.672 102.400 C 278.449 102.400,278.351 102.484,278.454 102.587 M285.000 105.417 C 288.613 107.122,291.717 108.416,291.857 108.276 C 291.945 108.188,290.888 107.620,289.508 107.014 C 288.129 106.407,286.477 105.661,285.839 105.356 C 285.200 105.050,284.480 104.812,284.239 104.826 C 283.997 104.840,284.340 105.106,285.000 105.417 M300.400 112.200 C 300.950 112.514,301.580 112.772,301.800 112.772 C 302.020 112.772,301.750 112.514,301.200 112.200 C 300.650 111.886,300.020 111.628,299.800 111.628 C 299.580 111.628,299.850 111.886,300.400 112.200 M305.700 114.432 C 306.612 114.964,306.811 281.780,305.900 282.801 C 305.475 283.278,305.504 283.282,306.100 282.832 C 306.763 282.330,306.800 277.849,306.800 198.631 C 306.800 113.377,306.810 113.972,305.420 114.012 C 305.189 114.019,305.315 114.208,305.700 114.432 M222.895 123.064 C 220.857 125.119,219.331 126.800,219.503 126.800 C 219.922 126.800,227.008 119.667,226.779 119.476 C 226.681 119.395,224.933 121.009,222.895 123.064 M193.795 152.025 C 180.378 165.427,169.490 176.391,169.600 176.388 C 169.942 176.380,218.514 127.980,218.347 127.814 C 218.261 127.728,207.212 138.623,193.795 152.025 M114.300 134.408 C 111.768 135.998,111.861 136.297,114.418 134.790 C 116.837 133.363,117.433 133.323,118.774 134.500 L 119.800 135.400 118.830 134.300 C 117.597 132.901,116.665 132.923,114.300 134.408 M110.600 136.637 C 110.160 136.974,108.135 138.246,106.100 139.463 C 104.065 140.681,102.400 141.761,102.400 141.863 C 102.400 142.089,102.067 142.275,107.500 139.006 C 109.975 137.517,112.000 136.232,112.000 136.149 C 112.000 135.831,111.365 136.052,110.600 136.637 M120.800 136.119 C 120.800 136.377,129.138 143.200,129.453 143.200 C 129.741 143.200,128.640 142.196,126.455 140.465 C 125.715 139.879,124.635 138.985,124.055 138.477 C 122.632 137.232,120.800 135.905,120.800 136.119 M100.072 143.043 C 99.122 143.612,98.431 144.164,98.536 144.269 C 98.720 144.453,102.000 142.444,102.000 142.147 C 102.000 141.905,101.872 141.965,100.072 143.043 M94.900 146.226 C 93.965 146.787,93.200 147.431,93.200 147.658 C 93.200 147.885,93.716 147.650,94.346 147.136 C 94.977 146.621,95.832 145.986,96.246 145.724 C 97.710 144.798,96.577 145.221,94.900 146.226 M132.000 145.311 C 132.000 145.426,133.980 147.160,136.400 149.164 C 138.820 151.169,140.800 152.627,140.800 152.404 C 140.800 152.182,140.665 151.999,140.500 151.998 C 140.335 151.997,139.659 151.502,138.998 150.898 C 138.338 150.294,136.898 149.086,135.798 148.214 C 134.699 147.341,133.710 146.531,133.600 146.414 C 133.102 145.882,132.000 145.123,132.000 145.311 M93.394 200.000 C 93.394 228.270,93.442 239.835,93.500 225.700 C 93.558 211.565,93.558 188.435,93.500 174.300 C 93.442 160.165,93.394 171.730,93.394 200.000 M143.000 154.545 C 144.100 155.556,145.149 156.387,145.331 156.392 C 145.513 156.396,145.063 155.908,144.331 155.306 C 143.599 154.705,142.910 154.120,142.800 154.006 C 142.690 153.893,142.240 153.554,141.800 153.254 C 141.360 152.953,141.900 153.534,143.000 154.545 M252.370 156.700 L 251.400 157.800 252.490 156.840 C 254.077 155.442,253.994 153.148,254.103 201.400 L 254.204 245.800 254.302 200.700 C 254.408 152.077,254.504 154.279,252.370 156.700 M146.800 157.640 C 148.701 159.465,152.000 162.073,151.983 161.737 C 151.967 161.426,149.370 159.249,146.856 157.440 L 145.800 156.680 146.800 157.640 M153.288 163.013 C 153.886 163.643,154.447 164.077,154.535 163.979 C 154.623 163.880,154.133 163.365,153.447 162.834 L 152.200 161.869 153.288 163.013 M240.800 165.675 L 239.000 167.285 240.800 165.965 C 241.790 165.239,242.675 164.590,242.767 164.523 C 242.858 164.455,242.858 164.325,242.766 164.233 C 242.674 164.141,241.789 164.790,240.800 165.675 M154.800 164.465 C 156.826 166.228,159.197 167.997,159.185 167.737 C 159.168 167.351,155.850 164.679,155.098 164.445 C 154.824 164.360,154.690 164.369,154.800 164.465 M161.400 169.751 C 162.500 170.759,163.565 171.587,163.767 171.592 C 163.968 171.596,164.058 171.546,163.967 171.481 C 163.875 171.415,162.810 170.587,161.600 169.640 L 159.400 167.919 161.400 169.751 M235.000 170.047 C 232.554 172.025,231.781 172.821,233.400 171.694 C 234.869 170.671,237.475 168.433,237.200 168.431 C 237.090 168.429,236.100 169.157,235.000 170.047 M165.000 172.814 C 165.660 173.321,166.695 174.189,167.300 174.743 C 167.905 175.297,168.393 175.581,168.385 175.375 C 168.368 174.961,165.090 172.291,164.298 172.046 C 164.024 171.961,164.340 172.306,165.000 172.814 M117.200 200.400 C 117.200 215.800,117.341 228.400,117.514 228.400 C 117.921 228.400,122.000 224.273,122.000 223.861 C 122.000 223.688,121.112 224.459,120.026 225.573 C 118.940 226.688,117.950 227.600,117.826 227.600 C 117.702 227.600,117.600 215.360,117.600 200.400 C 117.600 185.440,117.726 173.200,117.879 173.200 C 118.033 173.200,121.179 176.293,124.872 180.074 C 128.565 183.854,131.669 186.864,131.772 186.762 C 131.999 186.534,117.976 172.400,117.523 172.400 C 117.345 172.400,117.200 185.000,117.200 200.400 M226.000 177.032 C 223.792 178.779,222.970 179.632,224.600 178.485 C 226.202 177.358,228.250 175.631,228.000 175.618 C 227.890 175.612,226.990 176.249,226.000 177.032 M219.200 182.246 C 218.210 183.019,217.130 183.938,216.800 184.288 C 216.470 184.638,217.325 184.076,218.700 183.039 C 220.075 182.002,221.200 181.074,221.200 180.977 C 221.200 180.699,221.106 180.759,219.200 182.246 M138.400 193.800 C 142.025 197.430,145.068 200.400,145.162 200.400 C 145.256 200.400,145.258 200.324,145.167 200.232 C 145.075 200.139,142.161 197.169,138.692 193.632 C 135.222 190.094,132.254 187.200,132.096 187.200 C 131.938 187.200,134.775 190.170,138.400 193.800 M208.400 190.854 L 206.600 192.485 208.294 191.213 C 209.768 190.107,210.714 189.174,210.324 189.212 C 210.256 189.219,209.390 189.958,208.400 190.854 M205.000 193.388 C 204.340 193.929,203.994 194.378,204.230 194.386 C 204.467 194.394,205.083 193.950,205.600 193.400 C 206.794 192.129,206.542 192.124,205.000 193.388 M201.400 196.252 C 199.786 197.705,200.440 197.391,202.531 195.709 C 203.153 195.209,203.513 194.803,203.331 194.806 C 203.149 194.809,202.280 195.460,201.400 196.252 M198.500 198.399 C 197.356 199.326,197.370 199.656,198.600 200.725 C 199.150 201.203,199.600 201.426,199.600 201.220 C 199.600 201.014,199.195 200.556,198.700 200.202 L 197.800 199.558 198.757 198.769 C 199.283 198.335,199.643 197.910,199.557 197.824 C 199.470 197.739,198.995 197.997,198.500 198.399 M133.465 212.071 C 127.341 218.227,122.399 223.333,122.483 223.417 C 122.567 223.501,127.757 218.446,134.015 212.185 C 140.274 205.923,145.216 200.818,144.997 200.839 C 144.779 200.860,139.589 205.915,133.465 212.071 M201.800 203.351 C 202.900 204.359,203.965 205.187,204.167 205.192 C 204.368 205.196,204.458 205.146,204.367 205.081 C 204.275 205.015,203.210 204.187,202.000 203.240 L 199.800 201.519 201.800 203.351 M214.000 213.304 C 214.000 213.398,214.945 214.263,216.100 215.226 C 217.255 216.190,217.947 216.661,217.638 216.274 C 217.018 215.496,214.000 213.032,214.000 213.304 M221.288 219.413 C 221.886 220.043,222.447 220.477,222.535 220.379 C 222.623 220.280,222.133 219.765,221.447 219.234 L 220.200 218.269 221.288 219.413 M163.000 225.841 C 160.419 227.875,158.483 229.614,160.000 228.535 C 163.576 225.991,166.537 223.533,165.924 223.617 C 165.856 223.626,164.540 224.627,163.000 225.841 M230.488 227.013 C 231.086 227.643,231.647 228.077,231.735 227.979 C 231.823 227.880,231.333 227.365,230.647 226.834 L 229.400 225.869 230.488 227.013 M157.324 230.161 C 156.403 230.843,155.638 231.547,155.624 231.727 C 155.602 232.024,156.407 231.501,158.571 229.810 C 160.079 228.632,158.971 228.944,157.324 230.161 M152.665 233.813 C 151.381 234.796,150.464 235.600,150.629 235.600 C 150.987 235.600,155.200 232.455,155.200 232.187 C 155.200 231.885,155.109 231.943,152.665 233.813 M239.771 234.697 C 240.415 235.409,241.030 235.904,241.138 235.796 C 241.245 235.688,241.258 235.555,241.167 235.500 C 241.075 235.445,240.460 234.951,239.800 234.401 L 238.600 233.403 239.771 234.697 M191.400 247.200 C 197.557 253.360,202.685 258.400,202.795 258.400 C 202.905 258.400,197.957 253.360,191.800 247.200 C 185.643 241.040,180.515 236.000,180.405 236.000 C 180.295 236.000,185.243 241.040,191.400 247.200 M145.000 239.852 C 143.386 241.305,144.040 240.991,146.131 239.309 C 146.753 238.809,147.113 238.403,146.931 238.406 C 146.749 238.409,145.880 239.060,145.000 239.852 M141.400 242.639 C 140.173 243.734,140.088 243.877,141.036 243.252 C 142.152 242.516,143.520 241.191,143.149 241.206 C 143.067 241.209,142.280 241.854,141.400 242.639 M248.013 241.500 C 248.019 241.665,248.514 242.146,249.113 242.568 L 250.200 243.336 249.230 242.268 C 248.211 241.146,247.992 241.007,248.013 241.500 M134.400 248.075 L 132.600 249.685 134.400 248.365 C 135.390 247.639,136.275 246.990,136.367 246.923 C 136.458 246.855,136.458 246.725,136.366 246.633 C 136.274 246.541,135.389 247.190,134.400 248.075 M129.600 251.637 C 127.184 253.515,124.846 255.631,126.400 254.532 C 129.898 252.060,132.891 249.571,132.324 249.608 C 132.256 249.612,131.030 250.525,129.600 251.637 M94.400 253.359 C 94.400 253.651,98.110 255.623,98.301 255.433 C 98.399 255.334,97.562 254.789,96.440 254.220 C 95.318 253.652,94.400 253.264,94.400 253.359 M122.600 257.063 C 119.554 259.440,118.918 260.000,119.269 260.000 C 119.395 260.000,120.640 259.087,122.036 257.971 C 123.432 256.855,124.848 255.789,125.184 255.601 C 125.519 255.414,125.705 255.174,125.597 255.069 C 125.489 254.964,124.140 255.862,122.600 257.063 M99.945 256.423 C 100.685 256.874,101.377 257.157,101.482 257.051 C 101.684 256.850,99.473 255.599,98.920 255.601 C 98.744 255.602,99.205 255.972,99.945 256.423 M102.000 257.361 C 102.000 257.655,106.834 260.100,107.029 259.904 C 107.111 259.823,106.151 259.226,104.897 258.578 C 102.036 257.101,102.000 257.086,102.000 257.361 M107.618 260.293 C 107.640 260.650,111.292 262.442,111.524 262.210 C 111.609 262.124,110.762 261.589,109.640 261.020 C 108.518 260.452,107.608 260.125,107.618 260.293 M214.000 270.200 C 214.746 270.970,215.447 271.600,215.557 271.600 C 215.667 271.600,215.146 270.970,214.400 270.200 C 213.654 269.430,212.953 268.800,212.843 268.800 C 212.733 268.800,213.254 269.430,214.000 270.200 M217.200 273.400 C 217.946 274.170,218.647 274.800,218.757 274.800 C 218.867 274.800,218.346 274.170,217.600 273.400 C 216.854 272.630,216.153 272.000,216.043 272.000 C 215.933 272.000,216.454 272.630,217.200 273.400 M225.400 281.600 C 228.915 285.120,231.881 288.000,231.991 288.000 C 232.101 288.000,229.315 285.120,225.800 281.600 C 222.285 278.080,219.319 275.200,219.209 275.200 C 219.099 275.200,221.885 278.080,225.400 281.600 M283.600 293.000 C 283.050 293.314,282.780 293.572,283.000 293.572 C 283.220 293.572,283.850 293.314,284.400 293.000 C 284.950 292.686,285.220 292.428,285.000 292.428 C 284.780 292.428,284.150 292.686,283.600 293.000 M280.000 294.600 C 279.450 294.914,279.180 295.172,279.400 295.172 C 279.620 295.172,280.250 294.914,280.800 294.600 C 281.350 294.286,281.620 294.028,281.400 294.028 C 281.180 294.028,280.550 294.286,280.000 294.600 M277.000 295.978 C 276.120 296.395,275.513 296.750,275.651 296.768 C 276.040 296.818,278.800 295.614,278.800 295.395 C 278.800 295.127,278.799 295.127,277.000 295.978 M241.600 297.840 C 241.600 298.045,243.805 300.370,246.500 303.006 L 251.400 307.800 246.600 302.813 C 243.960 300.071,241.755 297.746,241.700 297.647 C 241.645 297.548,241.600 297.634,241.600 297.840 " stroke="none" fill="#70b7e3" fill-rule="evenodd"></path><path id="path3" d="M177.500 0.274 C 175.355 0.359,173.600 0.602,173.600 0.814 C 173.600 1.027,172.351 1.200,170.824 1.200 C 169.297 1.200,167.936 1.380,167.800 1.600 C 167.664 1.820,166.609 2.000,165.456 2.000 C 164.303 2.000,163.189 2.170,162.980 2.379 C 162.771 2.587,161.790 2.796,160.800 2.844 C 159.810 2.892,158.775 3.104,158.499 3.315 C 158.224 3.526,157.239 3.751,156.311 3.814 C 155.383 3.877,154.559 4.124,154.479 4.364 C 154.399 4.604,153.528 4.800,152.543 4.800 C 151.451 4.800,150.849 4.956,151.000 5.200 C 151.149 5.441,150.612 5.600,149.647 5.600 C 148.767 5.600,147.936 5.780,147.800 6.000 C 147.664 6.220,147.034 6.400,146.400 6.400 C 145.766 6.400,145.136 6.580,145.000 6.800 C 144.864 7.020,144.144 7.200,143.400 7.200 C 142.656 7.200,141.936 7.380,141.800 7.600 C 141.664 7.820,141.023 8.000,140.376 8.000 C 139.729 8.000,139.200 8.180,139.200 8.400 C 139.200 8.620,138.671 8.800,138.024 8.800 C 137.377 8.800,136.736 8.980,136.600 9.200 C 136.464 9.420,135.838 9.600,135.210 9.600 C 134.581 9.600,134.007 9.778,133.933 9.997 C 133.860 10.215,133.305 10.434,132.700 10.484 C 132.095 10.534,131.600 10.715,131.600 10.887 C 131.600 11.059,131.251 11.200,130.824 11.200 C 130.397 11.200,129.936 11.380,129.800 11.600 C 129.664 11.820,129.216 12.000,128.805 12.000 C 128.394 12.000,127.787 12.270,127.457 12.600 C 127.127 12.930,126.394 13.200,125.829 13.200 C 125.263 13.200,124.800 13.380,124.800 13.600 C 124.800 13.820,124.440 14.000,124.000 14.000 C 123.560 14.000,123.200 14.180,123.200 14.400 C 123.200 14.620,122.660 14.800,122.000 14.800 C 121.340 14.800,120.800 14.980,120.800 15.200 C 120.800 15.420,120.350 15.600,119.800 15.600 C 119.250 15.600,118.800 15.780,118.800 16.000 C 118.800 16.220,118.440 16.400,118.000 16.400 C 117.560 16.400,117.200 16.580,117.200 16.800 C 117.200 17.020,116.840 17.200,116.400 17.200 C 115.960 17.200,115.600 17.380,115.600 17.600 C 115.600 17.820,115.335 18.000,115.012 18.000 C 114.103 18.000,110.000 19.975,110.000 20.412 C 110.000 20.625,109.550 20.800,109.000 20.800 C 108.450 20.800,108.000 20.980,108.000 21.200 C 108.000 21.420,107.764 21.600,107.475 21.600 C 107.187 21.600,106.564 21.960,106.092 22.400 C 105.620 22.840,104.855 23.200,104.393 23.200 C 103.931 23.200,103.664 23.380,103.800 23.600 C 103.940 23.827,103.604 24.000,103.024 24.000 C 102.461 24.000,102.000 24.180,102.000 24.400 C 102.000 24.620,101.640 24.800,101.200 24.800 C 100.760 24.800,100.400 24.950,100.400 25.132 C 100.400 25.315,99.905 25.720,99.300 26.032 C 98.695 26.344,98.110 26.698,98.000 26.820 C 97.890 26.942,97.125 27.356,96.300 27.740 C 95.475 28.123,94.800 28.609,94.800 28.819 C 94.800 29.028,94.530 29.200,94.200 29.200 C 93.870 29.200,93.600 29.380,93.600 29.600 C 93.600 29.820,93.306 30.000,92.947 30.000 C 92.588 30.000,92.001 30.315,91.643 30.700 C 90.990 31.402,90.294 31.846,87.500 33.344 C 86.675 33.786,86.000 34.295,86.000 34.474 C 86.000 34.653,85.749 34.800,85.442 34.800 C 85.135 34.800,84.460 35.247,83.942 35.793 C 83.424 36.339,82.847 36.789,82.660 36.793 C 82.474 36.797,81.817 37.340,81.200 38.000 C 80.583 38.660,79.871 39.200,79.618 39.200 C 79.364 39.200,78.581 39.739,77.878 40.398 C 77.175 41.057,76.404 41.597,76.164 41.598 C 75.924 41.599,74.897 42.365,73.883 43.300 C 72.869 44.235,71.383 45.540,70.580 46.200 C 69.777 46.860,68.408 48.071,67.537 48.891 C 66.666 49.712,65.423 50.695,64.776 51.078 C 64.129 51.460,63.600 52.014,63.600 52.310 C 63.600 52.605,63.420 52.736,63.200 52.600 C 62.980 52.464,62.800 52.633,62.800 52.976 C 62.800 53.319,62.665 53.559,62.500 53.509 C 62.082 53.383,52.439 63.106,52.712 63.378 C 52.834 63.500,52.672 63.600,52.353 63.600 C 52.034 63.600,51.446 64.153,51.046 64.830 C 50.647 65.506,49.528 66.851,48.560 67.819 C 47.592 68.787,46.800 69.682,46.800 69.808 C 46.800 69.933,46.395 70.465,45.900 70.988 C 44.209 72.777,42.314 75.124,42.449 75.262 C 42.569 75.384,41.094 77.190,39.700 78.627 C 39.425 78.911,39.200 79.333,39.200 79.565 C 39.200 79.796,38.759 80.484,38.220 81.093 C 35.222 84.480,34.800 85.023,34.800 85.489 C 34.800 85.770,34.653 86.000,34.474 86.000 C 34.295 86.000,33.786 86.675,33.344 87.500 C 31.846 90.294,31.402 90.990,30.700 91.643 C 30.315 92.001,30.000 92.588,30.000 92.947 C 30.000 93.306,29.820 93.600,29.600 93.600 C 29.380 93.600,29.200 93.870,29.200 94.200 C 29.200 94.530,29.028 94.800,28.819 94.800 C 28.609 94.800,28.120 95.475,27.732 96.300 C 27.344 97.125,26.705 98.149,26.313 98.575 C 25.921 99.002,25.600 99.587,25.600 99.875 C 25.600 100.164,25.420 100.400,25.200 100.400 C 24.980 100.400,24.800 100.749,24.800 101.176 C 24.800 101.603,24.620 102.064,24.400 102.200 C 24.180 102.336,24.000 102.807,24.000 103.247 C 24.000 103.687,23.820 103.936,23.600 103.800 C 23.380 103.664,23.200 103.931,23.200 104.393 C 23.200 104.855,22.840 105.620,22.400 106.092 C 21.960 106.564,21.600 107.187,21.600 107.475 C 21.600 107.764,21.420 108.000,21.200 108.000 C 20.980 108.000,20.800 108.450,20.800 109.000 C 20.800 109.550,20.625 110.000,20.412 110.000 C 19.975 110.000,18.000 114.103,18.000 115.012 C 18.000 115.335,17.820 115.600,17.600 115.600 C 17.380 115.600,17.200 115.960,17.200 116.400 C 17.200 116.840,17.020 117.200,16.800 117.200 C 16.580 117.200,16.400 117.560,16.400 118.000 C 16.400 118.440,16.220 118.800,16.000 118.800 C 15.780 118.800,15.600 119.239,15.600 119.776 C 15.600 120.313,15.420 120.864,15.200 121.000 C 14.980 121.136,14.800 121.687,14.800 122.224 C 14.800 122.761,14.620 123.200,14.400 123.200 C 14.180 123.200,14.000 123.560,14.000 124.000 C 14.000 124.440,13.820 124.800,13.600 124.800 C 13.380 124.800,13.200 125.263,13.200 125.829 C 13.200 126.394,12.930 127.127,12.600 127.457 C 12.270 127.787,12.000 128.394,12.000 128.805 C 12.000 129.216,11.820 129.664,11.600 129.800 C 11.380 129.936,11.200 130.397,11.200 130.824 C 11.200 131.251,11.059 131.600,10.887 131.600 C 10.715 131.600,10.534 132.095,10.484 132.700 C 10.434 133.305,10.215 133.860,9.997 133.933 C 9.778 134.007,9.600 134.581,9.600 135.210 C 9.600 135.838,9.420 136.464,9.200 136.600 C 8.980 136.736,8.800 137.377,8.800 138.024 C 8.800 138.671,8.620 139.200,8.400 139.200 C 8.180 139.200,8.000 139.841,8.000 140.624 C 8.000 141.471,7.838 141.947,7.600 141.800 C 7.358 141.651,7.200 142.196,7.200 143.176 C 7.200 144.069,7.020 144.800,6.800 144.800 C 6.580 144.800,6.400 145.430,6.400 146.200 C 6.400 146.970,6.220 147.600,6.000 147.600 C 5.780 147.600,5.600 148.421,5.600 149.424 C 5.600 150.537,5.444 151.151,5.200 151.000 C 4.956 150.849,4.800 151.451,4.800 152.543 C 4.800 153.528,4.604 154.399,4.364 154.479 C 4.124 154.559,3.877 155.383,3.814 156.311 C 3.751 157.239,3.526 158.224,3.315 158.499 C 3.104 158.775,2.892 159.810,2.844 160.800 C 2.796 161.790,2.587 162.771,2.379 162.980 C 2.170 163.189,2.000 164.303,2.000 165.456 C 2.000 166.609,1.820 167.664,1.600 167.800 C 1.380 167.936,1.200 169.282,1.200 170.790 C 1.200 172.629,1.035 173.588,0.700 173.700 C -0.032 173.944,-0.032 226.056,0.700 226.300 C 1.035 226.412,1.200 227.371,1.200 229.210 C 1.200 230.718,1.380 232.064,1.600 232.200 C 1.820 232.336,2.000 233.416,2.000 234.600 C 2.000 235.784,2.180 236.864,2.400 237.000 C 2.620 237.136,2.800 238.101,2.800 239.144 C 2.800 240.187,3.001 241.241,3.247 241.487 C 3.493 241.733,3.747 242.709,3.812 243.655 C 3.876 244.602,4.124 245.441,4.364 245.521 C 4.604 245.601,4.800 246.462,4.800 247.433 C 4.800 248.405,4.980 249.200,5.200 249.200 C 5.420 249.200,5.600 249.920,5.600 250.800 C 5.600 251.680,5.780 252.400,6.000 252.400 C 6.220 252.400,6.400 253.030,6.400 253.800 C 6.400 254.570,6.580 255.200,6.800 255.200 C 7.020 255.200,7.200 255.920,7.200 256.800 C 7.200 257.680,7.380 258.400,7.600 258.400 C 7.820 258.400,8.000 258.940,8.000 259.600 C 8.000 260.260,8.180 260.800,8.400 260.800 C 8.620 260.800,8.800 261.329,8.800 261.976 C 8.800 262.623,8.980 263.264,9.200 263.400 C 9.420 263.536,9.600 264.162,9.600 264.790 C 9.600 265.419,9.778 265.993,9.997 266.067 C 10.215 266.140,10.434 266.695,10.484 267.300 C 10.534 267.905,10.676 268.400,10.800 268.400 C 10.924 268.400,11.267 269.220,11.563 270.222 C 11.859 271.224,12.349 272.291,12.651 272.594 C 12.953 272.896,13.200 273.606,13.200 274.171 C 13.200 274.737,13.380 275.200,13.600 275.200 C 13.820 275.200,14.000 275.560,14.000 276.000 C 14.000 276.440,14.180 276.800,14.400 276.800 C 14.620 276.800,14.800 277.239,14.800 277.776 C 14.800 278.313,14.980 278.864,15.200 279.000 C 15.420 279.136,15.600 279.687,15.600 280.224 C 15.600 280.761,15.780 281.200,16.000 281.200 C 16.220 281.200,16.400 281.560,16.400 282.000 C 16.400 282.440,16.580 282.800,16.800 282.800 C 17.020 282.800,17.200 283.160,17.200 283.600 C 17.200 284.040,17.380 284.400,17.600 284.400 C 17.820 284.400,18.000 284.665,18.000 284.988 C 18.000 285.897,19.975 290.000,20.412 290.000 C 20.625 290.000,20.800 290.450,20.800 291.000 C 20.800 291.550,20.980 292.000,21.200 292.000 C 21.420 292.000,21.600 292.236,21.600 292.525 C 21.600 292.813,21.960 293.436,22.400 293.908 C 22.840 294.380,23.200 295.134,23.200 295.583 C 23.200 296.032,23.380 296.400,23.600 296.400 C 23.820 296.400,24.000 296.760,24.000 297.200 C 24.000 297.640,24.180 298.000,24.400 298.000 C 24.620 298.000,24.800 298.360,24.800 298.800 C 24.800 299.240,24.980 299.600,25.200 299.600 C 25.420 299.600,25.600 299.836,25.600 300.125 C 25.600 300.413,25.921 300.998,26.313 301.425 C 26.705 301.851,27.344 302.875,27.732 303.700 C 28.120 304.525,28.609 305.200,28.819 305.200 C 29.028 305.200,29.200 305.470,29.200 305.800 C 29.200 306.130,29.380 306.400,29.600 306.400 C 29.820 306.400,30.000 306.720,30.000 307.112 C 30.000 307.503,30.360 308.083,30.800 308.400 C 31.240 308.717,31.600 309.297,31.600 309.688 C 31.600 310.080,31.752 310.400,31.937 310.400 C 32.123 310.400,32.691 311.210,33.200 312.200 C 33.709 313.190,34.277 314.000,34.463 314.000 C 34.648 314.000,34.800 314.251,34.800 314.558 C 34.800 314.865,35.247 315.540,35.793 316.058 C 36.339 316.576,36.789 317.153,36.793 317.340 C 36.797 317.526,37.340 318.183,38.000 318.800 C 38.660 319.417,39.200 320.209,39.200 320.560 C 39.200 320.912,39.380 321.200,39.600 321.200 C 39.820 321.200,40.000 321.388,40.000 321.618 C 40.000 321.848,40.450 322.486,41.000 323.036 C 41.550 323.586,42.000 324.193,42.000 324.386 C 42.000 324.578,42.675 325.450,43.500 326.324 C 44.325 327.198,45.360 328.413,45.800 329.025 C 46.240 329.637,47.447 331.010,48.483 332.077 C 49.518 333.144,50.682 334.554,51.069 335.209 C 51.456 335.864,52.034 336.400,52.353 336.400 C 52.672 336.400,52.830 336.503,52.704 336.630 C 52.419 336.914,63.284 347.837,65.203 349.197 C 65.972 349.742,67.163 350.730,67.851 351.393 C 68.540 352.057,69.764 353.140,70.571 353.800 C 71.379 354.460,72.869 355.765,73.883 356.700 C 74.897 357.635,75.877 358.400,76.059 358.400 C 76.375 358.400,77.477 359.218,78.616 360.300 C 78.906 360.575,79.339 360.800,79.578 360.800 C 79.818 360.800,80.613 361.385,81.346 362.100 C 83.213 363.923,84.912 365.188,85.500 365.195 C 85.775 365.198,86.000 365.352,86.000 365.537 C 86.000 365.723,86.810 366.291,87.800 366.800 C 88.790 367.309,89.600 367.877,89.600 368.063 C 89.600 368.248,89.920 368.400,90.312 368.400 C 90.703 368.400,91.283 368.760,91.600 369.200 C 91.917 369.640,92.398 370.000,92.668 370.000 C 92.938 370.000,93.644 370.450,94.238 371.000 C 94.831 371.550,95.561 372.000,95.858 372.000 C 96.156 372.000,96.400 372.180,96.400 372.400 C 96.400 372.620,96.760 372.800,97.200 372.800 C 97.640 372.800,98.000 372.950,98.000 373.133 C 98.000 373.544,102.696 376.000,103.480 376.000 C 103.792 376.000,103.936 376.180,103.800 376.400 C 103.660 376.627,103.996 376.800,104.576 376.800 C 105.139 376.800,105.600 376.950,105.600 377.132 C 105.600 377.315,106.095 377.720,106.700 378.032 C 107.305 378.344,107.890 378.708,108.000 378.841 C 108.369 379.287,114.370 382.000,114.989 382.000 C 115.325 382.000,115.600 382.180,115.600 382.400 C 115.600 382.620,115.960 382.800,116.400 382.800 C 116.840 382.800,117.200 382.980,117.200 383.200 C 117.200 383.420,117.560 383.600,118.000 383.600 C 118.440 383.600,118.800 383.780,118.800 384.000 C 118.800 384.220,119.239 384.400,119.776 384.400 C 120.313 384.400,120.864 384.580,121.000 384.800 C 121.136 385.020,121.687 385.200,122.224 385.200 C 122.761 385.200,123.200 385.380,123.200 385.600 C 123.200 385.820,123.560 386.000,124.000 386.000 C 124.440 386.000,124.800 386.180,124.800 386.400 C 124.800 386.620,125.325 386.800,125.967 386.800 C 126.608 386.800,127.203 387.009,127.288 387.265 C 127.374 387.521,127.704 387.785,128.022 387.853 C 129.453 388.156,131.600 389.024,131.600 389.298 C 131.600 389.464,132.140 389.600,132.800 389.600 C 133.460 389.600,134.000 389.780,134.000 390.000 C 134.000 390.220,134.529 390.400,135.176 390.400 C 135.823 390.400,136.464 390.580,136.600 390.800 C 136.736 391.020,137.377 391.200,138.024 391.200 C 138.671 391.200,139.200 391.380,139.200 391.600 C 139.200 391.820,139.729 392.000,140.376 392.000 C 141.023 392.000,141.664 392.180,141.800 392.400 C 141.936 392.620,142.656 392.800,143.400 392.800 C 144.144 392.800,144.864 392.980,145.000 393.200 C 145.136 393.420,145.766 393.600,146.400 393.600 C 147.034 393.600,147.664 393.780,147.800 394.000 C 147.936 394.220,148.667 394.400,149.424 394.400 C 150.181 394.400,150.800 394.580,150.800 394.800 C 150.800 395.020,151.533 395.200,152.429 395.200 C 153.343 395.200,154.320 395.463,154.657 395.800 C 154.987 396.130,155.954 396.400,156.805 396.400 C 157.656 396.400,158.464 396.580,158.600 396.800 C 158.736 397.020,159.726 397.200,160.800 397.200 C 161.874 397.200,162.864 397.380,163.000 397.600 C 163.136 397.820,164.216 398.000,165.400 398.000 C 166.584 398.000,167.664 398.180,167.800 398.400 C 167.936 398.620,169.282 398.800,170.790 398.800 C 172.629 398.800,173.588 398.965,173.700 399.300 C 173.831 399.693,179.449 399.800,200.000 399.800 C 220.551 399.800,226.169 399.693,226.300 399.300 C 226.412 398.965,227.371 398.800,229.210 398.800 C 230.718 398.800,232.064 398.620,232.200 398.400 C 232.336 398.180,233.517 398.000,234.824 398.000 C 236.141 398.000,237.200 397.822,237.200 397.600 C 237.200 397.380,238.064 397.200,239.120 397.200 C 240.176 397.200,241.211 397.038,241.420 396.839 C 241.629 396.641,242.604 396.390,243.586 396.282 C 244.568 396.174,245.438 395.886,245.519 395.643 C 245.600 395.399,246.462 395.200,247.433 395.200 C 248.405 395.200,249.200 395.020,249.200 394.800 C 249.200 394.580,249.819 394.400,250.576 394.400 C 251.333 394.400,252.064 394.220,252.200 394.000 C 252.336 393.780,252.966 393.600,253.600 393.600 C 254.234 393.600,254.864 393.420,255.000 393.200 C 255.136 392.980,255.856 392.800,256.600 392.800 C 257.344 392.800,258.064 392.620,258.200 392.400 C 258.336 392.180,258.977 392.000,259.624 392.000 C 260.271 392.000,260.800 391.820,260.800 391.600 C 260.800 391.380,261.329 391.200,261.976 391.200 C 262.623 391.200,263.264 391.020,263.400 390.800 C 263.536 390.580,264.177 390.400,264.824 390.400 C 265.471 390.400,266.000 390.220,266.000 390.000 C 266.000 389.780,266.540 389.600,267.200 389.600 C 267.860 389.600,268.400 389.453,268.400 389.272 C 268.400 389.092,269.320 388.694,270.445 388.388 C 271.570 388.081,272.579 387.599,272.688 387.315 C 272.797 387.032,273.406 386.800,274.043 386.800 C 274.679 386.800,275.200 386.620,275.200 386.400 C 275.200 386.180,275.560 386.000,276.000 386.000 C 276.440 386.000,276.800 385.820,276.800 385.600 C 276.800 385.380,277.340 385.200,278.000 385.200 C 278.660 385.200,279.200 385.020,279.200 384.800 C 279.200 384.580,279.650 384.400,280.200 384.400 C 280.750 384.400,281.200 384.220,281.200 384.000 C 281.200 383.780,281.560 383.600,282.000 383.600 C 282.440 383.600,282.800 383.420,282.800 383.200 C 282.800 382.980,283.160 382.800,283.600 382.800 C 284.040 382.800,284.400 382.620,284.400 382.400 C 284.400 382.180,284.675 382.000,285.011 382.000 C 285.630 382.000,291.631 379.287,292.000 378.841 C 292.110 378.708,292.695 378.344,293.300 378.032 C 293.905 377.720,294.400 377.315,294.400 377.132 C 294.400 376.950,294.850 376.800,295.400 376.800 C 295.950 376.800,296.400 376.620,296.400 376.400 C 296.400 376.180,296.760 376.000,297.200 376.000 C 297.640 376.000,298.000 375.820,298.000 375.600 C 298.000 375.380,298.360 375.200,298.800 375.200 C 299.240 375.200,299.600 375.020,299.600 374.800 C 299.600 374.580,299.836 374.400,300.125 374.400 C 300.413 374.400,301.036 374.040,301.508 373.600 C 301.980 373.160,302.644 372.800,302.983 372.800 C 303.322 372.800,303.600 372.620,303.600 372.400 C 303.600 372.180,303.844 372.000,304.142 372.000 C 304.439 372.000,305.169 371.550,305.762 371.000 C 306.356 370.450,307.062 370.000,307.332 370.000 C 307.602 370.000,308.083 369.640,308.400 369.200 C 308.717 368.760,309.297 368.400,309.688 368.400 C 310.080 368.400,310.400 368.241,310.400 368.046 C 310.400 367.851,311.005 367.404,311.745 367.053 C 312.485 366.702,313.317 366.141,313.594 365.807 C 313.871 365.473,314.352 365.200,314.663 365.200 C 315.227 365.200,316.045 364.559,318.623 362.100 C 319.373 361.385,320.259 360.800,320.593 360.800 C 320.927 360.800,321.200 360.620,321.200 360.400 C 321.200 360.180,321.430 360.000,321.712 360.000 C 321.993 360.000,322.483 359.640,322.800 359.200 C 323.117 358.760,323.578 358.400,323.825 358.400 C 324.071 358.400,325.156 357.594,326.236 356.608 C 327.316 355.623,328.599 354.453,329.086 354.008 C 329.573 353.564,330.082 353.200,330.217 353.200 C 330.352 353.200,331.124 352.519,331.931 351.687 C 332.739 350.855,334.030 349.733,334.800 349.194 C 336.566 347.958,347.924 336.594,349.221 334.765 C 349.753 334.014,350.912 332.669,351.795 331.777 C 352.678 330.884,353.760 329.651,354.200 329.037 C 354.640 328.424,355.765 327.101,356.700 326.097 C 357.635 325.094,358.400 324.071,358.400 323.825 C 358.400 323.578,358.760 323.117,359.200 322.800 C 359.640 322.483,360.000 321.993,360.000 321.712 C 360.000 321.430,360.180 321.200,360.400 321.200 C 360.620 321.200,360.800 320.927,360.800 320.593 C 360.800 320.259,361.385 319.387,362.100 318.654 C 363.871 316.840,365.188 315.093,365.195 314.549 C 365.198 314.301,365.473 313.871,365.807 313.594 C 366.141 313.317,366.702 312.485,367.053 311.745 C 367.404 311.005,367.851 310.400,368.046 310.400 C 368.241 310.400,368.400 310.080,368.400 309.688 C 368.400 309.297,368.760 308.717,369.200 308.400 C 369.640 308.083,370.000 307.602,370.000 307.332 C 370.000 307.062,370.450 306.356,371.000 305.762 C 371.550 305.169,372.000 304.439,372.000 304.142 C 372.000 303.844,372.180 303.600,372.400 303.600 C 372.620 303.600,372.800 303.322,372.800 302.983 C 372.800 302.644,373.160 301.980,373.600 301.508 C 374.040 301.036,374.400 300.413,374.400 300.125 C 374.400 299.836,374.580 299.600,374.800 299.600 C 375.020 299.600,375.200 299.240,375.200 298.800 C 375.200 298.360,375.380 298.000,375.600 298.000 C 375.820 298.000,376.000 297.640,376.000 297.200 C 376.000 296.760,376.180 296.400,376.400 296.400 C 376.620 296.400,376.800 295.950,376.800 295.400 C 376.800 294.850,376.950 294.400,377.132 294.400 C 377.315 294.400,377.720 293.905,378.032 293.300 C 378.344 292.695,378.708 292.110,378.841 292.000 C 379.287 291.631,382.000 285.630,382.000 285.011 C 382.000 284.675,382.180 284.400,382.400 284.400 C 382.620 284.400,382.800 284.040,382.800 283.600 C 382.800 283.160,382.980 282.800,383.200 282.800 C 383.420 282.800,383.600 282.440,383.600 282.000 C 383.600 281.560,383.780 281.200,384.000 281.200 C 384.220 281.200,384.400 280.750,384.400 280.200 C 384.400 279.650,384.580 279.200,384.800 279.200 C 385.020 279.200,385.200 278.660,385.200 278.000 C 385.200 277.340,385.380 276.800,385.600 276.800 C 385.820 276.800,386.000 276.440,386.000 276.000 C 386.000 275.560,386.180 275.200,386.400 275.200 C 386.620 275.200,386.800 274.675,386.800 274.033 C 386.800 273.392,387.009 272.797,387.265 272.712 C 387.521 272.626,387.785 272.296,387.853 271.978 C 388.156 270.547,389.024 268.400,389.298 268.400 C 389.464 268.400,389.600 267.860,389.600 267.200 C 389.600 266.540,389.780 266.000,390.000 266.000 C 390.220 266.000,390.400 265.471,390.400 264.824 C 390.400 264.177,390.580 263.536,390.800 263.400 C 391.020 263.264,391.200 262.623,391.200 261.976 C 391.200 261.329,391.380 260.800,391.600 260.800 C 391.820 260.800,392.000 260.260,392.000 259.600 C 392.000 258.940,392.180 258.400,392.400 258.400 C 392.620 258.400,392.800 257.680,392.800 256.800 C 392.800 255.920,392.980 255.200,393.200 255.200 C 393.420 255.200,393.600 254.570,393.600 253.800 C 393.600 253.030,393.780 252.400,394.000 252.400 C 394.220 252.400,394.400 251.680,394.400 250.800 C 394.400 249.920,394.580 249.200,394.800 249.200 C 395.020 249.200,395.200 248.405,395.200 247.433 C 395.200 246.462,395.399 245.600,395.643 245.519 C 395.886 245.438,396.174 244.568,396.282 243.586 C 396.390 242.604,396.641 241.629,396.839 241.420 C 397.038 241.211,397.200 240.187,397.200 239.144 C 397.200 238.101,397.380 237.136,397.600 237.000 C 397.820 236.864,398.000 235.784,398.000 234.600 C 398.000 233.416,398.180 232.336,398.400 232.200 C 398.620 232.064,398.800 230.718,398.800 229.210 C 398.800 227.371,398.965 226.412,399.300 226.300 C 399.693 226.169,399.800 220.551,399.800 200.000 C 399.800 179.449,399.693 173.831,399.300 173.700 C 398.965 173.588,398.800 172.629,398.800 170.790 C 398.800 169.282,398.620 167.936,398.400 167.800 C 398.180 167.664,398.000 166.584,398.000 165.400 C 398.000 164.216,397.820 163.136,397.600 163.000 C 397.380 162.864,397.200 161.899,397.200 160.856 C 397.200 159.813,397.038 158.789,396.839 158.580 C 396.641 158.371,396.390 157.396,396.282 156.414 C 396.174 155.432,395.886 154.562,395.643 154.481 C 395.399 154.400,395.200 153.538,395.200 152.567 C 395.200 151.595,395.020 150.800,394.800 150.800 C 394.580 150.800,394.400 150.080,394.400 149.200 C 394.400 148.320,394.220 147.600,394.000 147.600 C 393.780 147.600,393.600 146.970,393.600 146.200 C 393.600 145.430,393.420 144.800,393.200 144.800 C 392.980 144.800,392.800 144.080,392.800 143.200 C 392.800 142.320,392.620 141.600,392.400 141.600 C 392.180 141.600,392.000 141.060,392.000 140.400 C 392.000 139.740,391.820 139.200,391.600 139.200 C 391.380 139.200,391.200 138.671,391.200 138.024 C 391.200 137.377,391.020 136.736,390.800 136.600 C 390.580 136.464,390.400 135.823,390.400 135.176 C 390.400 134.529,390.220 134.000,390.000 134.000 C 389.780 134.000,389.600 133.460,389.600 132.800 C 389.600 132.140,389.420 131.600,389.200 131.600 C 388.980 131.600,388.800 131.351,388.800 131.046 C 388.800 130.741,388.539 129.989,388.220 129.374 C 387.902 128.760,387.733 128.108,387.846 127.926 C 387.959 127.744,387.769 127.486,387.425 127.354 C 387.058 127.213,386.800 126.638,386.800 125.957 C 386.800 125.321,386.620 124.800,386.400 124.800 C 386.180 124.800,386.000 124.440,386.000 124.000 C 386.000 123.560,385.820 123.200,385.600 123.200 C 385.380 123.200,385.200 122.761,385.200 122.224 C 385.200 121.687,385.020 121.136,384.800 121.000 C 384.580 120.864,384.400 120.313,384.400 119.776 C 384.400 119.239,384.220 118.800,384.000 118.800 C 383.780 118.800,383.600 118.440,383.600 118.000 C 383.600 117.560,383.420 117.200,383.200 117.200 C 382.980 117.200,382.800 116.840,382.800 116.400 C 382.800 115.960,382.620 115.600,382.400 115.600 C 382.180 115.600,382.000 115.325,382.000 114.989 C 382.000 114.370,379.287 108.369,378.841 108.000 C 378.708 107.890,378.344 107.305,378.032 106.700 C 377.720 106.095,377.315 105.600,377.132 105.600 C 376.950 105.600,376.800 105.139,376.800 104.576 C 376.800 103.996,376.627 103.660,376.400 103.800 C 376.180 103.936,376.000 103.792,376.000 103.480 C 376.000 102.696,373.544 98.000,373.133 98.000 C 372.950 98.000,372.800 97.640,372.800 97.200 C 372.800 96.760,372.620 96.400,372.400 96.400 C 372.180 96.400,372.000 96.156,372.000 95.858 C 372.000 95.561,371.550 94.831,371.000 94.238 C 370.450 93.644,370.000 92.938,370.000 92.668 C 370.000 92.398,369.640 91.917,369.200 91.600 C 368.760 91.283,368.400 90.703,368.400 90.312 C 368.400 89.920,368.248 89.600,368.063 89.600 C 367.877 89.600,367.309 88.790,366.800 87.800 C 366.291 86.810,365.723 86.000,365.537 86.000 C 365.352 86.000,365.198 85.775,365.195 85.500 C 365.188 84.912,363.923 83.213,362.100 81.346 C 361.385 80.613,360.800 79.833,360.800 79.612 C 360.800 79.234,360.046 78.191,358.900 76.984 C 358.625 76.694,358.400 76.293,358.400 76.092 C 358.400 75.891,357.635 74.906,356.700 73.903 C 355.765 72.899,354.640 71.576,354.200 70.963 C 353.760 70.349,352.678 69.116,351.795 68.223 C 350.912 67.331,349.769 66.008,349.256 65.284 C 347.996 63.507,337.893 53.374,337.507 53.500 C 337.338 53.555,337.200 53.319,337.200 52.976 C 337.200 52.633,337.020 52.464,336.800 52.600 C 336.580 52.736,336.400 52.605,336.400 52.310 C 336.400 52.014,335.847 51.446,335.170 51.046 C 334.494 50.647,333.149 49.528,332.181 48.560 C 331.213 47.592,330.320 46.800,330.196 46.800 C 330.073 46.800,329.573 46.436,329.086 45.992 C 328.599 45.547,327.316 44.377,326.236 43.392 C 325.156 42.406,324.071 41.600,323.825 41.600 C 323.578 41.600,323.117 41.240,322.800 40.800 C 322.483 40.360,321.993 40.000,321.712 40.000 C 321.430 40.000,321.200 39.820,321.200 39.600 C 321.200 39.380,320.912 39.200,320.560 39.200 C 320.209 39.200,319.417 38.660,318.800 38.000 C 318.183 37.340,317.526 36.797,317.340 36.793 C 317.153 36.789,316.576 36.339,316.058 35.793 C 315.540 35.247,314.865 34.800,314.558 34.800 C 314.251 34.800,314.000 34.648,314.000 34.463 C 314.000 34.277,313.190 33.709,312.200 33.200 C 311.210 32.691,310.400 32.123,310.400 31.937 C 310.400 31.752,310.080 31.600,309.688 31.600 C 309.297 31.600,308.717 31.240,308.400 30.800 C 308.083 30.360,307.503 30.000,307.112 30.000 C 306.720 30.000,306.400 29.820,306.400 29.600 C 306.400 29.380,306.130 29.200,305.800 29.200 C 305.470 29.200,305.200 29.028,305.200 28.819 C 305.200 28.609,304.525 28.123,303.700 27.740 C 302.875 27.356,302.110 26.942,302.000 26.820 C 301.890 26.698,301.305 26.344,300.700 26.032 C 300.095 25.720,299.600 25.315,299.600 25.132 C 299.600 24.950,299.240 24.800,298.800 24.800 C 298.360 24.800,298.000 24.620,298.000 24.400 C 298.000 24.180,297.640 24.000,297.200 24.000 C 296.760 24.000,296.400 23.820,296.400 23.600 C 296.400 23.380,296.032 23.200,295.583 23.200 C 295.134 23.200,294.380 22.840,293.908 22.400 C 293.436 21.960,292.813 21.600,292.525 21.600 C 292.236 21.600,292.000 21.420,292.000 21.200 C 292.000 20.980,291.550 20.800,291.000 20.800 C 290.450 20.800,290.000 20.625,290.000 20.412 C 290.000 19.975,285.897 18.000,284.988 18.000 C 284.665 18.000,284.400 17.820,284.400 17.600 C 284.400 17.380,284.040 17.200,283.600 17.200 C 283.160 17.200,282.800 17.020,282.800 16.800 C 282.800 16.580,282.440 16.400,282.000 16.400 C 281.560 16.400,281.200 16.220,281.200 16.000 C 281.200 15.780,280.750 15.600,280.200 15.600 C 279.650 15.600,279.200 15.420,279.200 15.200 C 279.200 14.980,278.660 14.800,278.000 14.800 C 277.340 14.800,276.800 14.620,276.800 14.400 C 276.800 14.180,276.440 14.000,276.000 14.000 C 275.560 14.000,275.200 13.820,275.200 13.600 C 275.200 13.380,274.737 13.200,274.171 13.200 C 273.606 13.200,272.896 12.953,272.594 12.651 C 272.291 12.349,271.224 11.859,270.222 11.563 C 269.220 11.267,268.400 10.924,268.400 10.800 C 268.400 10.676,267.905 10.534,267.300 10.484 C 266.695 10.434,266.140 10.215,266.067 9.997 C 265.993 9.778,265.419 9.600,264.790 9.600 C 264.162 9.600,263.536 9.420,263.400 9.200 C 263.264 8.980,262.623 8.800,261.976 8.800 C 261.329 8.800,260.800 8.620,260.800 8.400 C 260.800 8.180,260.271 8.000,259.624 8.000 C 258.977 8.000,258.336 7.820,258.200 7.600 C 258.064 7.380,257.344 7.200,256.600 7.200 C 255.856 7.200,255.136 7.020,255.000 6.800 C 254.864 6.580,254.234 6.400,253.600 6.400 C 252.966 6.400,252.336 6.220,252.200 6.000 C 252.064 5.780,251.333 5.600,250.576 5.600 C 249.819 5.600,249.200 5.420,249.200 5.200 C 249.200 4.980,248.405 4.800,247.433 4.800 C 246.462 4.800,245.601 4.604,245.521 4.364 C 245.441 4.124,244.602 3.876,243.655 3.812 C 242.709 3.747,241.733 3.493,241.487 3.247 C 241.241 3.001,240.187 2.800,239.144 2.800 C 238.101 2.800,237.136 2.620,237.000 2.400 C 236.864 2.180,235.784 2.000,234.600 2.000 C 233.416 2.000,232.336 1.820,232.200 1.600 C 232.064 1.380,230.718 1.200,229.210 1.200 C 227.416 1.200,226.411 1.032,226.305 0.715 C 226.145 0.235,187.319 -0.116,177.500 0.274 M215.000 13.206 C 232.619 14.666,244.877 17.156,260.000 22.346 C 277.166 28.237,294.663 37.203,308.800 47.352 C 311.991 49.643,319.559 55.479,320.000 55.989 C 320.110 56.116,321.590 57.422,323.290 58.890 C 328.383 63.291,332.000 66.893,332.000 67.565 C 332.000 67.912,323.074 77.125,312.164 88.036 L 292.328 107.875 293.664 108.499 C 294.399 108.842,295.900 109.514,297.000 109.994 C 298.100 110.473,299.313 111.031,299.695 111.233 C 300.077 111.435,300.662 111.600,300.995 111.600 C 301.328 111.600,301.600 111.780,301.600 112.000 C 301.600 112.220,301.872 112.400,302.205 112.400 C 302.538 112.400,303.123 112.559,303.505 112.753 C 303.887 112.948,304.740 113.352,305.400 113.653 C 306.060 113.953,306.732 114.379,306.894 114.599 C 307.242 115.074,307.309 281.650,306.961 282.557 C 306.830 282.899,305.705 283.649,304.461 284.224 C 303.218 284.799,301.887 285.434,301.505 285.635 C 301.123 285.836,300.538 286.000,300.205 286.000 C 299.872 286.000,299.600 286.180,299.600 286.400 C 299.600 286.620,299.150 286.800,298.600 286.800 C 298.050 286.800,297.600 286.980,297.600 287.200 C 297.600 287.420,297.240 287.600,296.800 287.600 C 296.360 287.600,296.000 287.780,296.000 288.000 C 296.000 288.220,295.809 288.400,295.575 288.400 C 295.342 288.400,293.767 289.051,292.075 289.846 C 286.797 292.327,283.838 293.683,282.800 294.096 C 282.250 294.314,281.487 294.652,281.105 294.847 C 280.723 295.041,280.138 295.200,279.805 295.200 C 279.472 295.200,279.200 295.380,279.200 295.600 C 279.200 295.820,279.002 296.000,278.761 296.000 C 278.519 296.000,276.584 296.825,274.461 297.834 C 270.665 299.637,269.077 300.366,265.300 302.044 C 264.255 302.508,263.087 303.048,262.705 303.244 C 262.323 303.440,261.738 303.600,261.405 303.600 C 261.072 303.600,260.800 303.780,260.800 304.000 C 260.800 304.220,260.547 304.400,260.238 304.400 C 259.929 304.400,258.984 304.753,258.138 305.185 C 254.759 306.910,252.216 308.000,251.570 308.000 C 250.963 308.000,242.703 299.824,225.783 282.475 C 222.712 279.327,211.560 268.046,201.000 257.407 C 190.440 246.769,179.656 235.890,177.036 233.232 C 174.415 230.574,172.165 228.400,172.035 228.400 C 171.905 228.400,148.489 251.710,120.000 280.200 C 91.511 308.690,67.916 332.000,67.567 332.000 C 66.893 332.000,63.295 328.388,58.890 323.290 C 57.422 321.590,56.116 320.110,55.989 320.000 C 55.386 319.479,49.476 311.767,46.946 308.200 C 33.986 289.931,23.510 267.307,17.959 245.600 C 12.911 225.858,11.389 199.165,14.024 176.600 C 16.218 157.820,20.156 143.756,28.940 123.332 C 32.591 114.844,41.426 99.284,46.446 92.500 C 47.301 91.345,48.765 89.367,49.700 88.105 C 59.757 74.527,74.527 59.757,88.105 49.700 C 89.367 48.765,91.345 47.302,92.500 46.449 C 95.125 44.510,100.698 40.937,103.600 39.333 C 104.810 38.665,106.790 37.526,108.000 36.803 C 118.375 30.604,136.485 22.929,148.600 19.597 C 150.140 19.173,152.750 18.455,154.400 18.001 C 161.585 16.024,173.157 14.184,184.400 13.232 C 189.958 12.761,209.432 12.745,215.000 13.206 M253.200 156.624 C 253.090 156.858,251.740 157.996,250.200 159.153 C 248.660 160.311,247.130 161.472,246.800 161.734 C 246.470 161.996,244.580 163.466,242.600 165.001 C 240.620 166.536,238.651 168.108,238.225 168.496 C 237.798 168.883,237.279 169.200,237.071 169.200 C 236.864 169.200,236.403 169.524,236.047 169.919 C 235.691 170.314,234.770 171.068,234.000 171.593 C 233.230 172.118,231.880 173.153,231.000 173.894 C 230.120 174.634,229.220 175.375,229.000 175.539 C 227.578 176.602,221.220 181.490,220.371 182.173 C 219.806 182.628,218.742 183.450,218.008 184.000 C 217.274 184.550,216.477 185.186,216.237 185.413 C 215.996 185.640,215.182 186.261,214.428 186.792 C 211.635 188.757,200.000 199.825,200.000 200.517 C 200.000 201.004,202.599 203.524,204.400 204.783 C 205.170 205.321,205.890 205.860,206.000 205.981 C 206.110 206.101,207.280 207.095,208.600 208.190 C 209.920 209.284,211.270 210.463,211.600 210.809 C 211.930 211.155,212.830 211.873,213.600 212.406 C 214.370 212.938,215.193 213.560,215.429 213.787 C 215.665 214.014,216.729 214.920,217.794 215.800 C 218.859 216.680,220.106 217.764,220.565 218.209 C 221.024 218.653,222.030 219.458,222.800 219.996 C 223.570 220.534,224.393 221.160,224.629 221.387 C 224.865 221.614,225.935 222.520,227.008 223.400 C 230.169 225.995,232.191 227.779,232.333 228.100 C 232.407 228.265,232.630 228.400,232.829 228.400 C 233.203 228.400,234.276 229.209,235.750 230.604 C 236.218 231.046,237.140 231.826,237.800 232.336 C 238.460 232.847,239.630 233.835,240.400 234.533 C 241.170 235.230,242.479 236.307,243.309 236.927 C 244.139 237.547,245.220 238.447,245.712 238.927 C 246.203 239.407,247.283 240.307,248.110 240.926 C 248.938 241.546,250.047 242.446,250.576 242.926 C 252.434 244.617,253.278 245.256,253.440 245.094 C 253.530 245.004,253.558 224.966,253.502 200.565 C 253.446 176.164,253.310 156.391,253.200 156.624 " stroke="none" fill="#047ccc" fill-rule="evenodd"></path><path id="path4" d="M234.706 111.901 C 223.985 122.626,215.082 131.580,214.922 131.800 C 214.763 132.020,223.562 123.309,234.476 112.442 C 249.233 97.748,254.489 92.749,254.981 92.937 C 255.368 93.086,255.541 93.027,255.397 92.795 C 254.834 91.884,253.336 93.267,234.706 111.901 M257.000 93.774 C 259.776 95.167,262.044 96.089,262.233 95.901 C 262.344 95.790,261.212 95.207,259.717 94.605 C 256.432 93.282,255.379 92.960,257.000 93.774 M262.800 96.189 C 262.800 96.506,265.700 97.633,265.928 97.405 C 266.041 97.292,266.035 97.200,265.916 97.200 C 265.796 97.200,265.046 96.928,264.249 96.595 C 263.452 96.262,262.800 96.079,262.800 96.189 M266.400 97.795 C 266.400 98.088,269.295 99.238,269.505 99.029 C 269.605 98.929,269.015 98.566,268.194 98.223 C 266.568 97.544,266.400 97.504,266.400 97.795 M273.338 100.847 C 274.184 101.293,274.968 101.565,275.081 101.452 C 275.276 101.257,272.580 99.980,272.051 100.018 C 271.913 100.027,272.492 100.400,273.338 100.847 M277.400 102.609 C 280.050 103.857,280.752 103.832,278.225 102.579 C 277.139 102.041,276.059 101.615,275.825 101.633 C 275.591 101.652,276.300 102.091,277.400 102.609 M282.400 104.589 C 282.400 104.906,285.300 106.033,285.528 105.805 C 285.641 105.692,285.635 105.600,285.516 105.600 C 285.396 105.600,284.646 105.328,283.849 104.995 C 283.052 104.662,282.400 104.479,282.400 104.589 M291.200 108.531 C 293.845 109.838,297.303 111.230,297.476 111.058 C 297.558 110.975,297.035 110.672,296.313 110.383 C 295.591 110.095,293.870 109.351,292.490 108.730 C 289.523 107.394,288.617 107.255,291.200 108.531 M306.000 198.120 L 306.200 281.800 306.301 198.421 C 306.356 152.562,306.266 114.906,306.101 114.741 C 305.935 114.575,305.890 152.096,306.000 198.120 M112.885 135.678 C 111.061 136.792,109.649 137.783,109.747 137.880 C 109.845 137.978,110.887 137.441,112.062 136.686 C 113.238 135.931,114.830 134.931,115.600 134.464 C 116.370 133.996,116.820 133.623,116.600 133.634 C 116.380 133.645,114.708 134.565,112.885 135.678 M117.800 134.229 C 118.240 134.561,118.960 135.140,119.400 135.517 C 119.840 135.894,122.450 138.065,125.200 140.343 C 127.950 142.620,130.650 144.870,131.200 145.342 C 131.750 145.814,134.180 147.813,136.600 149.784 C 139.020 151.755,141.090 153.471,141.200 153.598 C 141.310 153.725,143.740 155.743,146.600 158.083 C 149.460 160.422,152.475 162.904,153.300 163.597 C 154.125 164.291,154.793 164.710,154.784 164.529 C 154.775 164.348,153.380 163.090,151.684 161.733 C 149.988 160.376,147.970 158.733,147.200 158.083 C 146.430 157.433,142.020 153.786,137.400 149.979 C 132.780 146.172,126.449 140.929,123.330 138.328 C 120.212 135.728,117.512 133.606,117.330 133.613 C 117.149 133.620,117.360 133.897,117.800 134.229 M209.228 137.069 C 208.253 138.021,207.623 138.791,207.828 138.780 C 208.306 138.755,211.435 135.690,211.187 135.490 C 211.084 135.407,210.202 136.118,209.228 137.069 M106.700 139.429 C 106.095 139.757,105.600 140.110,105.600 140.213 C 105.600 140.599,106.232 140.357,107.200 139.600 C 108.389 138.670,108.211 138.609,106.700 139.429 M206.198 140.002 C 205.158 141.151,205.620 141.280,206.714 140.146 C 207.217 139.626,207.470 139.200,207.276 139.200 C 207.082 139.200,206.597 139.561,206.198 140.002 M102.400 142.073 C 100.970 142.968,99.227 144.028,98.526 144.428 C 96.103 145.814,94.066 147.169,93.829 147.553 C 93.664 147.821,93.478 231.960,93.598 252.386 C 93.599 252.598,93.960 252.965,94.400 253.200 C 94.942 253.490,95.200 253.495,95.200 253.214 C 95.200 252.986,94.931 252.800,94.603 252.800 C 93.675 252.800,93.494 148.506,94.420 147.580 C 94.762 147.238,97.241 145.639,99.930 144.025 C 102.619 142.412,104.916 140.936,105.033 140.746 C 105.344 140.243,105.251 140.290,102.400 142.073 M202.491 143.860 C 201.551 144.817,200.929 145.600,201.110 145.600 C 201.531 145.600,204.605 142.463,204.374 142.268 C 204.278 142.187,203.431 142.903,202.491 143.860 M197.798 148.402 C 196.758 149.551,197.220 149.680,198.314 148.546 C 198.817 148.026,199.070 147.600,198.876 147.600 C 198.682 147.600,198.197 147.961,197.798 148.402 M194.489 151.858 C 193.767 152.596,193.329 153.200,193.514 153.200 C 193.937 153.200,196.202 150.860,195.971 150.662 C 195.877 150.582,195.210 151.120,194.489 151.858 M180.807 165.400 C 174.772 171.450,169.724 176.400,169.589 176.400 C 169.454 176.400,168.547 175.737,167.572 174.926 C 164.707 172.544,164.383 172.448,166.773 174.690 C 167.998 175.840,169.228 176.785,169.506 176.790 C 169.784 176.796,175.043 171.760,181.193 165.600 C 187.342 159.440,192.240 154.400,192.077 154.400 C 191.914 154.400,186.843 159.350,180.807 165.400 M252.143 156.362 C 251.451 156.995,250.553 157.699,250.146 157.926 C 249.739 158.154,249.503 158.436,249.620 158.553 C 249.737 158.670,250.635 158.061,251.616 157.200 C 252.597 156.339,253.627 155.626,253.903 155.617 C 254.306 155.603,254.386 164.758,254.303 201.180 C 254.247 226.249,254.336 246.624,254.502 246.458 C 254.668 246.292,254.758 225.739,254.702 200.784 C 254.590 150.748,254.774 153.954,252.143 156.362 M246.200 161.030 C 240.618 165.247,236.678 168.400,236.992 168.400 C 237.168 168.400,238.501 167.453,239.956 166.295 C 241.410 165.138,243.635 163.406,244.900 162.447 C 246.165 161.487,247.200 160.635,247.200 160.551 C 247.200 160.314,247.056 160.383,246.200 161.030 M156.425 166.060 C 157.209 166.797,158.292 167.760,158.831 168.200 C 159.371 168.640,160.755 169.782,161.906 170.737 C 163.058 171.693,163.989 172.323,163.976 172.137 C 163.963 171.952,161.938 170.207,159.476 168.260 C 157.014 166.313,155.641 165.323,156.425 166.060 M231.200 172.632 C 228.992 174.379,228.170 175.232,229.800 174.085 C 231.402 172.958,233.450 171.231,233.200 171.218 C 233.090 171.212,232.190 171.849,231.200 172.632 M117.039 171.894 C 116.516 172.418,116.776 228.800,117.302 228.800 C 117.968 228.800,145.600 201.145,145.600 200.479 C 145.600 200.194,139.525 193.887,132.100 186.463 C 124.675 179.039,121.588 176.032,125.241 179.782 C 128.893 183.532,134.833 189.623,138.441 193.318 C 142.048 197.014,145.049 200.254,145.108 200.518 C 145.214 200.989,118.061 228.400,117.489 228.400 C 116.757 228.400,117.167 172.465,117.900 172.318 C 118.535 172.190,118.538 172.152,117.939 171.916 C 117.576 171.772,117.171 171.763,117.039 171.894 M227.429 175.429 C 227.005 175.738,226.736 176.069,226.830 176.163 C 226.924 176.257,227.348 176.081,227.771 175.771 C 228.195 175.462,228.464 175.131,228.370 175.037 C 228.276 174.943,227.852 175.119,227.429 175.429 M220.121 181.115 C 217.878 182.812,216.033 184.333,216.021 184.496 C 216.009 184.659,217.890 183.330,220.200 181.544 C 223.840 178.729,224.747 177.948,224.300 178.015 C 224.245 178.023,222.364 179.418,220.121 181.115 M209.800 189.209 C 207.820 190.747,204.772 193.129,203.026 194.503 C 201.280 195.876,199.255 197.411,198.526 197.914 C 196.858 199.065,197.180 201.200,199.020 201.200 C 199.217 201.200,198.978 200.920,198.489 200.577 C 197.092 199.599,197.373 199.202,201.865 195.800 C 206.313 192.432,212.736 187.394,213.380 186.769 C 214.441 185.738,213.028 186.702,209.800 189.209 M204.336 205.708 C 204.980 206.502,212.800 212.930,212.800 212.665 C 212.800 212.563,210.775 210.807,208.300 208.763 C 205.825 206.719,204.041 205.344,204.336 205.708 M213.223 213.096 C 213.243 213.357,214.910 214.764,220.843 219.529 C 221.479 220.040,222.000 220.373,222.000 220.269 C 222.000 220.165,220.020 218.440,217.600 216.436 C 215.180 214.431,213.210 212.928,213.223 213.096 M222.424 220.696 C 222.450 221.023,231.200 228.169,231.200 227.863 C 231.200 227.762,229.220 226.040,226.800 224.036 C 224.380 222.031,222.411 220.528,222.424 220.696 M165.789 223.212 C 165.367 223.679,164.522 224.355,163.911 224.716 C 163.300 225.077,162.800 225.529,162.800 225.720 C 162.800 226.080,166.098 223.638,166.333 223.103 C 166.531 222.654,167.901 222.736,168.137 223.210 C 168.249 223.436,168.294 223.390,168.239 223.110 C 168.068 222.253,166.601 222.315,165.789 223.212 M169.600 224.710 C 169.600 225.131,172.737 228.205,172.932 227.974 C 173.013 227.878,172.297 227.031,171.340 226.091 C 170.383 225.151,169.600 224.529,169.600 224.710 M159.999 227.713 C 154.351 232.041,150.800 234.885,150.800 235.082 C 150.800 235.201,151.025 235.126,151.300 234.916 C 151.575 234.706,152.610 233.919,153.600 233.167 C 154.590 232.415,155.490 231.707,155.600 231.594 C 155.710 231.481,157.204 230.324,158.920 229.023 C 161.633 226.967,162.766 225.965,162.324 226.013 C 162.256 226.021,161.209 226.786,159.999 227.713 M237.284 233.100 C 241.581 236.665,242.955 237.724,242.000 236.734 C 240.954 235.651,234.081 230.000,233.809 230.000 C 233.665 230.000,235.229 231.395,237.284 233.100 M189.034 244.419 C 196.533 251.999,206.613 262.166,211.434 267.013 C 216.255 271.861,218.130 273.679,215.600 271.054 C 213.070 268.428,210.460 265.703,209.800 264.996 C 207.314 262.337,177.257 232.166,176.349 231.419 C 175.827 230.990,181.535 236.840,189.034 244.419 M148.992 236.207 C 146.963 237.834,139.385 243.746,137.978 244.800 C 137.244 245.350,134.024 247.823,130.822 250.296 C 127.620 252.768,122.954 256.368,120.454 258.296 C 117.953 260.223,115.671 262.025,115.382 262.300 C 114.643 263.004,113.846 262.925,112.165 261.980 C 111.363 261.530,110.639 261.227,110.558 261.309 C 110.343 261.524,113.578 263.200,114.209 263.200 C 114.502 263.200,118.580 260.227,123.271 256.593 C 127.962 252.959,132.970 249.089,134.400 247.992 C 135.830 246.895,139.636 243.952,142.859 241.451 C 146.081 238.950,149.130 236.614,149.634 236.261 C 150.139 235.908,150.469 235.536,150.368 235.435 C 150.267 235.334,149.648 235.681,148.992 236.207 M245.280 239.755 C 246.666 240.940,247.875 241.840,247.967 241.755 C 248.058 241.670,248.058 241.549,247.967 241.487 C 247.875 241.425,246.781 240.525,245.536 239.487 C 244.291 238.449,243.157 237.600,243.016 237.600 C 242.875 237.600,243.894 238.570,245.280 239.755 M250.375 243.892 C 251.379 244.822,252.341 245.587,252.514 245.592 C 252.687 245.596,252.147 245.024,251.314 244.320 C 248.904 242.284,248.385 242.047,250.375 243.892 M95.633 253.752 C 96.151 254.225,103.763 257.970,103.909 257.824 C 104.084 257.649,96.255 253.600,95.741 253.600 C 95.590 253.600,95.542 253.668,95.633 253.752 M104.400 258.190 C 104.400 258.294,104.985 258.665,105.700 259.014 L 107.000 259.648 106.000 258.833 C 105.037 258.048,104.400 257.792,104.400 258.190 M107.233 259.749 C 107.645 260.117,110.000 261.200,110.000 261.021 C 110.000 260.790,107.782 259.600,107.353 259.600 C 107.196 259.600,107.142 259.667,107.233 259.749 M224.600 280.400 C 226.792 282.600,228.675 284.400,228.785 284.400 C 228.895 284.400,227.192 282.600,225.000 280.400 C 222.808 278.200,220.925 276.400,220.815 276.400 C 220.705 276.400,222.408 278.200,224.600 280.400 M304.600 283.031 C 303.720 283.557,303.180 283.989,303.400 283.992 C 303.881 283.998,306.400 282.498,306.400 282.206 C 306.400 281.944,306.483 281.907,304.600 283.031 M299.253 285.453 C 298.513 285.776,298.001 286.134,298.116 286.249 C 298.231 286.364,299.016 286.093,299.862 285.647 C 301.635 284.711,301.241 284.586,299.253 285.453 M294.093 287.780 C 292.500 288.660,292.548 288.906,294.179 288.229 C 295.048 287.869,295.843 287.490,295.946 287.387 C 296.326 287.008,294.971 287.294,294.093 287.780 M234.509 290.527 C 235.439 291.477,236.278 292.193,236.374 292.120 C 236.603 291.943,233.529 288.800,233.128 288.800 C 232.958 288.800,233.579 289.577,234.509 290.527 M290.800 289.400 C 290.250 289.714,289.980 289.972,290.200 289.972 C 290.420 289.972,291.050 289.714,291.600 289.400 C 292.150 289.086,292.420 288.828,292.200 288.828 C 291.980 288.828,291.350 289.086,290.800 289.400 M287.200 291.000 C 286.650 291.314,286.380 291.572,286.600 291.572 C 286.820 291.572,287.450 291.314,288.000 291.000 C 288.550 290.686,288.820 290.428,288.600 290.428 C 288.380 290.428,287.750 290.686,287.200 291.000 M236.800 292.724 C 236.800 293.148,238.345 294.597,238.549 294.364 C 238.628 294.274,238.267 293.789,237.746 293.286 C 237.226 292.783,236.800 292.530,236.800 292.724 M271.400 298.195 C 269.420 299.151,267.980 299.935,268.200 299.938 C 268.420 299.941,270.220 299.161,272.200 298.205 C 274.180 297.249,275.620 296.465,275.400 296.462 C 275.180 296.459,273.380 297.239,271.400 298.195 M246.624 302.731 L 251.448 307.644 254.321 306.353 C 255.901 305.642,257.128 304.994,257.046 304.913 C 256.965 304.832,255.751 305.292,254.349 305.937 C 251.339 307.321,251.413 307.346,247.957 303.731 C 246.521 302.229,244.548 300.284,243.573 299.409 C 242.598 298.533,243.971 300.028,246.624 302.731 M258.893 303.780 C 257.300 304.660,257.348 304.906,258.979 304.229 C 259.848 303.869,260.643 303.490,260.746 303.387 C 261.126 303.008,259.771 303.294,258.893 303.780 " stroke="none" fill="#94c4ec" fill-rule="evenodd"></path></g></svg>